<mxfile host="app.diagrams.net" modified="2022-10-18T09:25:16.829Z" agent="5.0 (Macintosh; Intel Mac OS X 10_15_7) AppleWebKit/537.36 (KHTML, like Gecko) Chrome/106.0.0.0 Safari/537.36" etag="hHMJcCxBYYnn2zsomhEH" version="20.4.0" type="github">
  <diagram id="Dp55uMkS6cbiFILtKtCQ" name="Page-1">
    <mxGraphModel dx="1298" dy="734" grid="1" gridSize="10" guides="1" tooltips="1" connect="1" arrows="1" fold="1" page="1" pageScale="1" pageWidth="850" pageHeight="1100" math="0" shadow="0">
      <root>
        <mxCell id="0" />
        <mxCell id="1" parent="0" />
        <mxCell id="AAyzkLF70KZ3Ie2LhL6t-1" value="integral_const" style="html=1;fillColor=#dae8fc;strokeColor=#6c8ebf;" vertex="1" parent="1">
          <mxGeometry x="360" y="70" width="110" height="50" as="geometry" />
        </mxCell>
        <mxCell id="AAyzkLF70KZ3Ie2LhL6t-7" style="edgeStyle=none;rounded=0;orthogonalLoop=1;jettySize=auto;html=1;exitX=0.5;exitY=0;exitDx=0;exitDy=0;entryX=0.5;entryY=1;entryDx=0;entryDy=0;dashed=1;" edge="1" parent="1" source="AAyzkLF70KZ3Ie2LhL6t-2" target="AAyzkLF70KZ3Ie2LhL6t-1">
          <mxGeometry relative="1" as="geometry" />
        </mxCell>
        <mxCell id="AAyzkLF70KZ3Ie2LhL6t-2" value="bool_const" style="html=1;fillColor=#d5e8d4;strokeColor=#82b366;" vertex="1" parent="1">
          <mxGeometry x="360" y="160" width="110" height="50" as="geometry" />
        </mxCell>
        <mxCell id="AAyzkLF70KZ3Ie2LhL6t-5" style="rounded=0;orthogonalLoop=1;jettySize=auto;html=1;exitX=0.5;exitY=0;exitDx=0;exitDy=0;entryX=0.5;entryY=1;entryDx=0;entryDy=0;dashed=1;edgeStyle=orthogonalEdgeStyle;" edge="1" parent="1" source="AAyzkLF70KZ3Ie2LhL6t-3" target="AAyzkLF70KZ3Ie2LhL6t-2">
          <mxGeometry relative="1" as="geometry" />
        </mxCell>
        <mxCell id="AAyzkLF70KZ3Ie2LhL6t-3" value="true_type" style="html=1;fillColor=#ffe6cc;strokeColor=#d79b00;" vertex="1" parent="1">
          <mxGeometry x="290" y="258" width="110" height="50" as="geometry" />
        </mxCell>
        <mxCell id="AAyzkLF70KZ3Ie2LhL6t-6" style="edgeStyle=orthogonalEdgeStyle;rounded=0;orthogonalLoop=1;jettySize=auto;html=1;exitX=0.5;exitY=0;exitDx=0;exitDy=0;entryX=0.5;entryY=1;entryDx=0;entryDy=0;dashed=1;" edge="1" parent="1" source="AAyzkLF70KZ3Ie2LhL6t-4" target="AAyzkLF70KZ3Ie2LhL6t-2">
          <mxGeometry relative="1" as="geometry" />
        </mxCell>
        <mxCell id="AAyzkLF70KZ3Ie2LhL6t-4" value="false_type" style="html=1;fillColor=#ffe6cc;strokeColor=#d79b00;" vertex="1" parent="1">
          <mxGeometry x="440" y="258" width="110" height="50" as="geometry" />
        </mxCell>
      </root>
    </mxGraphModel>
  </diagram>
</mxfile>
